<svg xmlns="http://www.w3.org/2000/svg" xmlns:xlink="http://www.w3.org/1999/xlink" width="500" zoomAndPan="magnify" viewBox="0 0 375 374.999991" height="500" preserveAspectRatio="xMidYMid meet" version="1.2"><defs><clipPath id="451eadd669"><path d="M 214 82.832031 L 235 82.832031 L 235 173 L 214 173 Z M 214 82.832031 "/></clipPath><clipPath id="3345b8cecc"><path d="M 123.027344 148.347656 L 264.542969 148.347656 L 264.542969 195.195312 L 123.027344 195.195312 Z M 123.027344 148.347656 "/></clipPath><clipPath id="65ae117388"><path d="M 149 82.832031 L 203 82.832031 L 203 152.792969 L 149 152.792969 Z M 149 82.832031 "/></clipPath><clipPath id="838d6a0f8b"><path d="M 133 103 L 173 103 L 173 152.792969 L 133 152.792969 Z M 133 103 "/></clipPath><clipPath id="267b7f645b"><path d="M 123.304688 119 L 173 119 L 173 152.792969 L 123.304688 152.792969 Z M 123.304688 119 "/></clipPath><clipPath id="110d2c3127"><path d="M 175.34375 97.425781 L 190.980469 97.425781 L 190.980469 127.023438 L 175.34375 127.023438 Z M 175.34375 97.425781 "/></clipPath></defs><g id="749674ada3"><rect x="0" width="375" y="0" height="374.999991" style="fill:#ffffff;fill-opacity:1;stroke:none;"/><rect x="0" width="375" y="0" height="374.999991" style="fill:#256133;fill-opacity:1;stroke:none;"/><path style=" stroke:none;fill-rule:nonzero;fill:#e0e0c5;fill-opacity:1;" d="M 150.679688 178.71875 C 151.75 178.375 160.320312 179.621094 160.519531 179.382812 C 160.605469 179.273438 162.089844 179.339844 163.707031 179.445312 L 163.710938 146.96875 C 153.167969 150.332031 146.265625 150.363281 146.265625 150.363281 L 146.265625 178.609375 C 148.074219 178.769531 150.117188 178.894531 150.679688 178.71875 "/><g clip-rule="nonzero" clip-path="url(#451eadd669)"><path style=" stroke:none;fill-rule:nonzero;fill:#e0e0c5;fill-opacity:1;" d="M 227.0625 167.144531 L 234.082031 162.414062 L 234.050781 82.832031 C 227.878906 94.210938 221.28125 103.671875 214.582031 111.539062 L 214.636719 172.9375 C 216.835938 172.539062 218.558594 172.203125 218.722656 172.113281 C 219.214844 171.839844 227.0625 167.144531 227.0625 167.144531 "/></g><path style=" stroke:none;fill-rule:nonzero;fill:#e0e0c5;fill-opacity:1;" d="M 185.40625 178.292969 L 187.21875 178.160156 L 187.238281 135.765625 C 180.355469 140.183594 173.867188 143.265625 168.164062 145.417969 L 168.152344 179.753906 L 176.421875 179.167969 L 185.40625 178.292969 "/><path style=" stroke:none;fill-rule:nonzero;fill:#e0e0c5;fill-opacity:1;" d="M 204.183594 174.761719 C 204.183594 174.761719 206.984375 174.289062 210.125 173.738281 L 210.125 116.527344 C 203.925781 123.144531 197.699219 128.464844 191.695312 132.746094 L 191.695312 177.839844 L 194.828125 177.613281 L 204.183594 174.761719 "/><path style=" stroke:none;fill-rule:nonzero;fill:#e0e0c5;fill-opacity:1;" d="M 256.625 148.242188 C 255.789062 144.070312 250.203125 141.1875 241.492188 139.707031 L 237.738281 139.292969 L 237.679688 139.382812 C 237.679688 139.382812 261.042969 145.183594 243.625 156.226562 C 239.585938 158.945312 231.730469 163.519531 219.289062 167.953125 C 219.289062 167.953125 219.277344 167.957031 219.253906 167.964844 L 211.023438 170.648438 C 206.320312 172.054688 201.109375 173.394531 195.363281 174.605469 C 188.140625 176.128906 181.609375 177.101562 175.753906 177.691406 C 173.664062 177.996094 166.664062 178.347656 166.664062 178.347656 C 148.695312 179.089844 139.414062 176.074219 139.414062 176.074219 C 138.171875 175.726562 136.777344 175.222656 135.257812 174.441406 C 126.507812 169.9375 139.613281 160.011719 143.804688 157.09375 L 139.390625 159.558594 C 130.664062 164.671875 125.851562 169.953125 126.761719 174.484375 C 128.277344 182.039062 145.285156 185.382812 168.410156 183.773438 C 172.828125 183.285156 177.398438 182.785156 177.398438 182.785156 C 183.1875 182.109375 189.25 181.15625 195.46875 179.90625 C 201.484375 178.699219 207.253906 177.289062 212.6875 175.738281 L 215.5625 174.851562 C 218.265625 174.265625 221 173.171875 221 173.171875 C 243.40625 165.691406 258.164062 155.886719 256.625 148.242188 "/><g clip-rule="nonzero" clip-path="url(#3345b8cecc)"><path style=" stroke:none;fill-rule:nonzero;fill:#e0e0c5;fill-opacity:1;" d="M 262.523438 148.378906 C 262.714844 148.839844 262.863281 149.3125 262.960938 149.800781 C 264.945312 159.667969 247.210938 171.976562 220.679688 180.609375 C 220.679688 180.609375 216.941406 181.742188 212.984375 182.9375 C 207.882812 184.371094 202.523438 185.667969 196.972656 186.78125 C 191.894531 187.800781 186.914062 188.621094 182.074219 189.25 C 182.074219 189.25 178.402344 189.65625 174.234375 190.113281 C 148.542969 192.4375 128.296875 189.039062 123.027344 181.015625 C 124.917969 185.992188 130.617188 191.554688 145.769531 194.09375 C 156.167969 195.300781 166.085938 195.441406 175.335938 194.875 C 179.292969 194.539062 183.144531 194.214844 183.144531 194.214844 C 194.527344 192.996094 204.71875 190.777344 213.328125 188.3125 C 221.144531 185.878906 221.144531 185.878906 221.144531 185.878906 C 233.414062 181.75 241.179688 177.621094 242.777344 176.742188 C 267.359375 162.8125 266.234375 153.289062 262.523438 148.378906 "/></g><g clip-rule="nonzero" clip-path="url(#65ae117388)"><path style=" stroke:none;fill-rule:nonzero;fill:#e0e0c5;fill-opacity:1;" d="M 196.359375 82.832031 L 149.882812 91.738281 C 149.882812 91.738281 174.257812 130.089844 172.921875 152.796875 C 174.453125 125.296875 161.609375 96.582031 161.609375 96.582031 C 161.609375 96.582031 187.960938 90.953125 193.78125 90.226562 C 193.78125 90.226562 200.664062 96.992188 202.476562 114.289062 C 205.167969 99.03125 196.359375 82.832031 196.359375 82.832031 Z M 196.359375 82.832031 "/></g><g clip-rule="nonzero" clip-path="url(#838d6a0f8b)"><path style=" stroke:none;fill-rule:nonzero;fill:#e0e0c5;fill-opacity:1;" d="M 172.921875 152.796875 C 172.253906 151.078125 171.378906 149.382812 170.339844 147.710938 C 160.019531 131.070312 133.367188 116.523438 133.367188 116.523438 L 153.378906 103.195312 C 154.117188 104.511719 155.078125 105.980469 155.96875 107.648438 C 151.84375 110.542969 146.476562 114.296875 144.210938 116.757812 C 144.210938 116.757812 160.710938 127.734375 170.027344 146.15625 C 171.105469 148.269531 172.09375 150.484375 172.921875 152.796875 Z M 172.921875 152.796875 "/></g><g clip-rule="nonzero" clip-path="url(#267b7f645b)"><path style=" stroke:none;fill-rule:nonzero;fill:#e0e0c5;fill-opacity:1;" d="M 172.925781 152.792969 C 172.269531 152.035156 171.550781 151.308594 170.792969 150.613281 C 170.148438 150.023438 169.472656 149.441406 168.765625 148.894531 C 153.40625 136.75 123.394531 132.125 123.394531 132.125 L 132.996094 119.417969 C 133.949219 119.964844 135.769531 120.878906 137.796875 122.136719 C 135.785156 125.09375 134.515625 126.636719 133.671875 128.644531 C 133.671875 128.644531 152.917969 133.378906 167.941406 147.535156 C 168.835938 148.363281 169.699219 149.230469 170.539062 150.125 C 171.359375 150.976562 172.160156 151.867188 172.925781 152.792969 Z M 172.925781 152.792969 "/></g><g clip-rule="nonzero" clip-path="url(#110d2c3127)"><path style=" stroke:none;fill-rule:nonzero;fill:#e0e0c5;fill-opacity:1;" d="M 178.679688 105.128906 C 178.679688 103.839844 179.179688 102.851562 180.179688 102.167969 C 180.90625 101.671875 181.652344 101.421875 182.417969 101.421875 L 182.417969 109.183594 C 179.921875 108.128906 178.679688 106.777344 178.679688 105.128906 Z M 183.859375 114.375 C 186.554688 115.390625 187.90625 116.875 187.90625 118.832031 C 187.90625 120.050781 187.40625 121.027344 186.40625 121.761719 C 185.628906 122.339844 184.78125 122.644531 183.859375 122.675781 Z M 178.773438 119.167969 C 179.230469 118.816406 179.460938 118.34375 179.460938 117.75 C 179.460938 116.589844 178.851562 116.011719 177.636719 116.011719 C 177.117188 116.011719 176.652344 116.199219 176.242188 116.574219 C 175.640625 117.121094 175.34375 117.921875 175.34375 118.980469 C 175.34375 120.648438 176.050781 121.992188 177.472656 123.003906 C 178.796875 123.96875 180.445312 124.453125 182.417969 124.453125 L 182.417969 127.023438 L 183.859375 127.023438 L 183.859375 124.335938 C 186.570312 123.992188 188.527344 122.996094 189.726562 121.34375 C 190.5625 120.191406 190.980469 118.816406 190.980469 117.226562 C 190.980469 114.640625 189.472656 112.550781 186.460938 110.960938 C 185.359375 110.417969 184.488281 110.003906 183.859375 109.722656 L 183.859375 101.210938 C 184.734375 101.210938 185.550781 101.460938 186.3125 101.964844 C 187.074219 102.464844 187.457031 103.019531 187.457031 103.628906 C 187.457031 103.800781 187.296875 104.019531 186.980469 104.289062 C 186.667969 104.554688 186.507812 104.890625 186.507812 105.296875 C 186.507812 106.484375 187.046875 107.082031 188.117188 107.082031 C 189.503906 107.082031 190.199219 106.207031 190.199219 104.460938 C 190.199219 103.246094 189.636719 102.195312 188.511719 101.304688 C 187.292969 100.371094 185.742188 99.902344 183.859375 99.902344 L 183.859375 97.425781 L 182.417969 97.425781 L 182.417969 99.902344 C 180.695312 99.949219 179.199219 100.574219 177.921875 101.773438 C 176.5625 103.035156 175.886719 104.570312 175.886719 106.378906 C 175.886719 108.34375 176.613281 109.933594 178.0625 111.148438 C 178.773438 111.742188 180.222656 112.574219 182.417969 113.652344 L 182.417969 122.792969 C 181.449219 122.839844 180.496094 122.605469 179.5625 122.089844 C 178.578125 121.527344 178.085938 120.878906 178.085938 120.140625 C 178.085938 119.84375 178.316406 119.519531 178.773438 119.167969 "/></g><g style="fill:#e0e0c5;fill-opacity:1;"><g transform="translate(55.698873, 234.156005)"><path style="stroke:none" d="M 16.8125 -11.109375 C 19.382812 -10.273438 20.671875 -8.585938 20.671875 -6.046875 C 20.671875 -4.128906 19.867188 -2.640625 18.265625 -1.578125 C 16.660156 -0.523438 14.375 0 11.40625 0 L 1.421875 0 L 1.421875 -21.4375 L 12.5625 -21.4375 C 14.789062 -21.4375 16.503906 -20.914062 17.703125 -19.875 C 18.910156 -18.832031 19.515625 -17.335938 19.515625 -15.390625 C 19.515625 -13.359375 18.613281 -11.929688 16.8125 -11.109375 Z M 8.28125 -13.328125 L 11.578125 -13.328125 C 12.628906 -13.328125 13.15625 -13.757812 13.15625 -14.625 C 13.15625 -15.445312 12.628906 -15.929688 11.578125 -16.078125 L 8.28125 -16.078125 Z M 12 -5.359375 C 13.257812 -5.359375 13.890625 -5.859375 13.890625 -6.859375 C 13.890625 -7.890625 13.257812 -8.40625 12 -8.40625 L 8.28125 -8.40625 L 8.28125 -5.359375 Z M 12 -5.359375 "/></g></g><g style="fill:#e0e0c5;fill-opacity:1;"><g transform="translate(76.245972, 234.156005)"><path style="stroke:none" d="M 1.421875 -21.4375 L 8.359375 -21.4375 L 8.359375 -9.640625 C 8.359375 -8.390625 8.566406 -7.421875 8.984375 -6.734375 C 9.398438 -6.046875 9.992188 -5.703125 10.765625 -5.703125 C 11.503906 -5.703125 12.070312 -6.046875 12.46875 -6.734375 C 12.875 -7.421875 13.078125 -8.390625 13.078125 -9.640625 L 13.078125 -21.4375 L 20.0625 -21.4375 L 20.0625 -9.640625 C 20.0625 -6.472656 19.242188 -4.015625 17.609375 -2.265625 C 15.984375 -0.523438 13.6875 0.34375 10.71875 0.34375 C 7.75 0.34375 5.457031 -0.523438 3.84375 -2.265625 C 2.226562 -4.015625 1.421875 -6.472656 1.421875 -9.640625 Z M 1.421875 -21.4375 "/></g></g><g style="fill:#e0e0c5;fill-opacity:1;"><g transform="translate(96.364294, 234.156005)"><path style="stroke:none" d="M 9.984375 -21.4375 C 13.222656 -21.4375 15.710938 -20.503906 17.453125 -18.640625 C 19.191406 -16.785156 20.0625 -14.144531 20.0625 -10.71875 C 20.0625 -7.289062 19.191406 -4.644531 17.453125 -2.78125 C 15.710938 -0.925781 13.222656 0 9.984375 0 L 1.421875 0 L 1.421875 -21.4375 Z M 10.421875 -6 C 11.304688 -6 11.988281 -6.410156 12.46875 -7.234375 C 12.957031 -8.066406 13.203125 -9.226562 13.203125 -10.71875 C 13.203125 -12.238281 12.957031 -13.40625 12.46875 -14.21875 C 11.988281 -15.03125 11.304688 -15.4375 10.421875 -15.4375 L 8.359375 -15.4375 L 8.359375 -6 Z M 10.421875 -6 "/></g></g><g style="fill:#e0e0c5;fill-opacity:1;"><g transform="translate(116.182469, 234.156005)"><path style="stroke:none" d="M 20.546875 0 L 17.453125 0 L 16.6875 -2.359375 C 15.019531 -0.554688 13.085938 0.34375 10.890625 0.34375 C 7.773438 0.34375 5.375 -0.617188 3.6875 -2.546875 C 2 -4.484375 1.15625 -7.207031 1.15625 -10.71875 C 1.15625 -14.257812 2 -16.988281 3.6875 -18.90625 C 5.375 -20.820312 7.773438 -21.78125 10.890625 -21.78125 C 13.578125 -21.78125 15.734375 -21.078125 17.359375 -19.671875 C 18.992188 -18.273438 20.023438 -16.289062 20.453125 -13.71875 L 13.671875 -12.515625 C 13.328125 -14.691406 12.414062 -15.78125 10.9375 -15.78125 C 9.988281 -15.78125 9.265625 -15.34375 8.765625 -14.46875 C 8.265625 -13.59375 8.015625 -12.34375 8.015625 -10.71875 C 8.015625 -9.113281 8.265625 -7.875 8.765625 -7 C 9.265625 -6.132812 9.988281 -5.703125 10.9375 -5.703125 C 11.738281 -5.703125 12.351562 -6.316406 12.78125 -7.546875 L 10.8125 -7.546875 L 10.8125 -11.359375 L 20.671875 -11.359375 Z M 20.546875 0 "/></g></g><g style="fill:#e0e0c5;fill-opacity:1;"><g transform="translate(136.901088, 234.156005)"><path style="stroke:none" d="M 8.359375 -16.078125 L 8.359375 -13.296875 L 17.84375 -13.296875 L 17.84375 -8.140625 L 8.359375 -8.140625 L 8.359375 -5.359375 L 17.84375 -5.359375 L 17.84375 0 L 1.421875 0 L 1.421875 -21.4375 L 17.84375 -21.4375 L 17.84375 -16.078125 Z M 8.359375 -16.078125 "/></g></g><g style="fill:#e0e0c5;fill-opacity:1;"><g transform="translate(154.832615, 234.156005)"><path style="stroke:none" d="M 19.890625 -15.4375 L 14.0625 -15.4375 L 14.0625 0 L 7.125 0 L 7.125 -15.4375 L 1.25 -15.4375 L 1.25 -21.4375 L 19.890625 -21.4375 Z M 19.890625 -15.4375 "/></g></g><g style="fill:#e0e0c5;fill-opacity:1;"><g transform="translate(174.65079, 234.156005)"><path style="stroke:none" d=""/></g></g><g style="fill:#e0e0c5;fill-opacity:1;"><g transform="translate(179.118531, 234.156005)"><path style="stroke:none" d="M 19.890625 -15.4375 L 14.0625 -15.4375 L 14.0625 0 L 7.125 0 L 7.125 -15.4375 L 1.25 -15.4375 L 1.25 -21.4375 L 19.890625 -21.4375 Z M 19.890625 -15.4375 "/></g></g><g style="fill:#e0e0c5;fill-opacity:1;"><g transform="translate(198.936706, 234.156005)"><path style="stroke:none" d="M 17.625 -9.265625 C 19.164062 -8.035156 19.9375 -6.117188 19.9375 -3.515625 L 19.9375 0 L 13.59375 0 L 13.59375 -4.421875 C 13.59375 -6.304688 12.707031 -7.40625 10.9375 -7.71875 L 8.359375 -7.71875 L 8.359375 0 L 1.421875 0 L 1.421875 -21.4375 L 12.734375 -21.4375 C 15.078125 -21.4375 16.882812 -20.84375 18.15625 -19.65625 C 19.425781 -18.46875 20.0625 -16.773438 20.0625 -14.578125 C 20.0625 -12.179688 19.25 -10.410156 17.625 -9.265625 Z M 11.796875 -12.859375 C 13.160156 -12.859375 13.84375 -13.390625 13.84375 -14.453125 C 13.84375 -15.535156 13.160156 -16.078125 11.796875 -16.078125 L 8.359375 -16.078125 L 8.359375 -12.859375 Z M 11.796875 -12.859375 "/></g></g><g style="fill:#e0e0c5;fill-opacity:1;"><g transform="translate(218.840629, 234.156005)"><path style="stroke:none" d="M 15.390625 -3.125 L 8.1875 -3.125 L 7.03125 0 L 0.296875 0 L 8.3125 -21.4375 L 15.34375 -21.4375 L 23.28125 0 L 16.515625 0 Z M 13.5 -8.28125 L 11.828125 -14.15625 L 10.078125 -8.28125 Z M 13.5 -8.28125 "/></g></g><g style="fill:#e0e0c5;fill-opacity:1;"><g transform="translate(241.059986, 234.156005)"><path style="stroke:none" d="M 13.5 -8.96875 C 13.1875 -6.789062 12.300781 -5.703125 10.84375 -5.703125 C 9.957031 -5.703125 9.265625 -6.132812 8.765625 -7 C 8.265625 -7.875 8.015625 -9.113281 8.015625 -10.71875 C 8.015625 -12.34375 8.265625 -13.59375 8.765625 -14.46875 C 9.265625 -15.34375 9.957031 -15.78125 10.84375 -15.78125 C 11.5 -15.78125 12.0625 -15.492188 12.53125 -14.921875 C 13.007812 -14.347656 13.332031 -13.535156 13.5 -12.484375 L 20.234375 -13.546875 C 19.691406 -16.179688 18.601562 -18.210938 16.96875 -19.640625 C 15.34375 -21.066406 13.289062 -21.78125 10.8125 -21.78125 C 7.71875 -21.78125 5.332031 -20.820312 3.65625 -18.90625 C 1.988281 -16.988281 1.15625 -14.257812 1.15625 -10.71875 C 1.15625 -7.207031 1.988281 -4.484375 3.65625 -2.546875 C 5.332031 -0.617188 7.71875 0.34375 10.8125 0.34375 C 13.289062 0.34375 15.34375 -0.375 16.96875 -1.8125 C 18.601562 -3.257812 19.691406 -5.285156 20.234375 -7.890625 Z M 13.5 -8.96875 "/></g></g><g style="fill:#e0e0c5;fill-opacity:1;"><g transform="translate(261.092549, 234.156005)"><path style="stroke:none" d="M 13.03125 0 L 9.46875 -6.5625 L 8.359375 -4.9375 L 8.359375 0 L 1.421875 0 L 1.421875 -21.4375 L 8.359375 -21.4375 L 8.359375 -14.625 L 13.15625 -21.4375 L 20.15625 -21.4375 L 13.59375 -12.3125 L 20.28125 0 Z M 13.03125 0 "/></g></g><g style="fill:#e0e0c5;fill-opacity:1;"><g transform="translate(280.138897, 234.156005)"><path style="stroke:none" d="M 8.359375 -16.078125 L 8.359375 -13.296875 L 17.84375 -13.296875 L 17.84375 -8.140625 L 8.359375 -8.140625 L 8.359375 -5.359375 L 17.84375 -5.359375 L 17.84375 0 L 1.421875 0 L 1.421875 -21.4375 L 17.84375 -21.4375 L 17.84375 -16.078125 Z M 8.359375 -16.078125 "/></g></g><g style="fill:#e0e0c5;fill-opacity:1;"><g transform="translate(298.070436, 234.156005)"><path style="stroke:none" d="M 17.625 -9.265625 C 19.164062 -8.035156 19.9375 -6.117188 19.9375 -3.515625 L 19.9375 0 L 13.59375 0 L 13.59375 -4.421875 C 13.59375 -6.304688 12.707031 -7.40625 10.9375 -7.71875 L 8.359375 -7.71875 L 8.359375 0 L 1.421875 0 L 1.421875 -21.4375 L 12.734375 -21.4375 C 15.078125 -21.4375 16.882812 -20.84375 18.15625 -19.65625 C 19.425781 -18.46875 20.0625 -16.773438 20.0625 -14.578125 C 20.0625 -12.179688 19.25 -10.410156 17.625 -9.265625 Z M 11.796875 -12.859375 C 13.160156 -12.859375 13.84375 -13.390625 13.84375 -14.453125 C 13.84375 -15.535156 13.160156 -16.078125 11.796875 -16.078125 L 8.359375 -16.078125 L 8.359375 -12.859375 Z M 11.796875 -12.859375 "/></g></g><g style="fill:#e0e0c5;fill-opacity:1;"><g transform="translate(122.230671, 260.525053)"><path style="stroke:none" d="M 5.09375 -14.1875 C 5.550781 -14.1875 5.945312 -14.144531 6.28125 -14.0625 C 6.625 -13.976562 6.96875 -13.859375 7.3125 -13.703125 C 7.488281 -13.640625 7.660156 -13.582031 7.828125 -13.53125 C 8.003906 -13.476562 8.160156 -13.453125 8.296875 -13.453125 C 8.617188 -13.453125 8.875 -13.695312 9.0625 -14.1875 L 9.4375 -14.1875 L 9.4375 -9.578125 L 9.0625 -9.578125 C 8.988281 -10.296875 8.773438 -10.945312 8.421875 -11.53125 C 8.066406 -12.125 7.617188 -12.585938 7.078125 -12.921875 C 6.546875 -13.253906 5.976562 -13.421875 5.375 -13.421875 C 4.71875 -13.421875 4.148438 -13.222656 3.671875 -12.828125 C 3.203125 -12.429688 2.96875 -11.953125 2.96875 -11.390625 C 2.96875 -10.722656 3.289062 -10.148438 3.9375 -9.671875 C 4.394531 -9.328125 5.035156 -8.921875 5.859375 -8.453125 C 6.585938 -8.003906 7.191406 -7.617188 7.671875 -7.296875 C 8.160156 -6.972656 8.613281 -6.625 9.03125 -6.25 C 9.414062 -5.882812 9.71875 -5.460938 9.9375 -4.984375 C 10.15625 -4.515625 10.265625 -4.03125 10.265625 -3.53125 C 10.265625 -2.84375 10.078125 -2.203125 9.703125 -1.609375 C 9.328125 -1.023438 8.8125 -0.5625 8.15625 -0.21875 C 7.5 0.125 6.78125 0.296875 6 0.296875 C 5.5 0.296875 5.054688 0.253906 4.671875 0.171875 C 4.296875 0.0859375 3.898438 -0.03125 3.484375 -0.1875 C 3.023438 -0.34375 2.679688 -0.421875 2.453125 -0.421875 C 2.085938 -0.421875 1.8125 -0.179688 1.625 0.296875 L 1.25 0.296875 L 1.25 -4.375 L 1.625 -4.375 C 1.851562 -3.164062 2.304688 -2.210938 2.984375 -1.515625 C 3.660156 -0.816406 4.539062 -0.46875 5.625 -0.46875 C 6.382812 -0.46875 7.015625 -0.675781 7.515625 -1.09375 C 8.015625 -1.507812 8.265625 -2.035156 8.265625 -2.671875 C 8.265625 -2.992188 8.203125 -3.289062 8.078125 -3.5625 C 7.960938 -3.832031 7.765625 -4.117188 7.484375 -4.421875 C 7.222656 -4.691406 6.859375 -4.984375 6.390625 -5.296875 C 5.921875 -5.617188 5.296875 -6.015625 4.515625 -6.484375 C 3.847656 -6.890625 3.335938 -7.207031 2.984375 -7.4375 C 2.640625 -7.675781 2.378906 -7.882812 2.203125 -8.0625 C 1.515625 -8.769531 1.171875 -9.613281 1.171875 -10.59375 C 1.171875 -11.269531 1.34375 -11.878906 1.6875 -12.421875 C 2.03125 -12.972656 2.5 -13.40625 3.09375 -13.71875 C 3.6875 -14.03125 4.351562 -14.1875 5.09375 -14.1875 Z M 5.09375 -14.1875 "/></g></g><g style="fill:#e0e0c5;fill-opacity:1;"><g transform="translate(133.127434, 260.525053)"><path style="stroke:none" d="M 2.75 -14.5625 C 3.039062 -14.5625 3.285156 -14.457031 3.484375 -14.25 C 3.691406 -14.050781 3.796875 -13.8125 3.796875 -13.53125 C 3.796875 -13.226562 3.691406 -12.972656 3.484375 -12.765625 C 3.285156 -12.566406 3.039062 -12.46875 2.75 -12.46875 C 2.46875 -12.46875 2.222656 -12.566406 2.015625 -12.765625 C 1.816406 -12.972656 1.71875 -13.226562 1.71875 -13.53125 C 1.71875 -13.8125 1.816406 -14.050781 2.015625 -14.25 C 2.222656 -14.457031 2.46875 -14.5625 2.75 -14.5625 Z M 3.640625 -2.109375 C 3.640625 -1.441406 3.742188 -0.988281 3.953125 -0.75 C 4.171875 -0.507812 4.523438 -0.378906 5.015625 -0.359375 L 5.015625 0 L 0.46875 0 L 0.46875 -0.359375 C 1.019531 -0.359375 1.410156 -0.484375 1.640625 -0.734375 C 1.867188 -0.992188 1.984375 -1.460938 1.984375 -2.140625 L 1.984375 -7.03125 C 1.984375 -7.394531 1.898438 -7.691406 1.734375 -7.921875 C 1.578125 -8.148438 1.328125 -8.265625 0.984375 -8.265625 C 0.835938 -8.265625 0.707031 -8.234375 0.59375 -8.171875 L 0.46875 -8.53125 L 3.28125 -9.609375 L 3.640625 -9.609375 Z M 3.640625 -2.109375 "/></g></g><g style="fill:#e0e0c5;fill-opacity:1;"><g transform="translate(138.343324, 260.525053)"><path style="stroke:none" d="M 3.53125 -9.609375 L 3.53125 -7.6875 C 4.695312 -8.96875 5.75 -9.609375 6.6875 -9.609375 C 7.3125 -9.609375 7.820312 -9.4375 8.21875 -9.09375 C 8.613281 -8.75 8.882812 -8.238281 9.03125 -7.5625 C 10.0625 -8.925781 11.179688 -9.609375 12.390625 -9.609375 C 13.265625 -9.609375 13.894531 -9.289062 14.28125 -8.65625 C 14.664062 -8.03125 14.859375 -7.304688 14.859375 -6.484375 L 14.859375 -2.140625 C 14.859375 -1.628906 14.910156 -1.25 15.015625 -1 C 15.117188 -0.75 15.273438 -0.578125 15.484375 -0.484375 C 15.703125 -0.398438 16.003906 -0.359375 16.390625 -0.359375 L 16.390625 0 L 11.625 0 L 11.625 -0.359375 C 12.039062 -0.359375 12.359375 -0.398438 12.578125 -0.484375 C 12.796875 -0.566406 12.953125 -0.734375 13.046875 -0.984375 C 13.148438 -1.242188 13.203125 -1.644531 13.203125 -2.1875 L 13.203125 -6.671875 C 13.203125 -7.140625 13.0625 -7.539062 12.78125 -7.875 C 12.507812 -8.21875 12.109375 -8.390625 11.578125 -8.390625 C 11.148438 -8.390625 10.707031 -8.273438 10.25 -8.046875 C 9.800781 -7.816406 9.429688 -7.515625 9.140625 -7.140625 L 9.203125 -5.9375 L 9.203125 -2.140625 C 9.203125 -1.628906 9.253906 -1.25 9.359375 -1 C 9.460938 -0.75 9.617188 -0.578125 9.828125 -0.484375 C 10.046875 -0.398438 10.347656 -0.359375 10.734375 -0.359375 L 10.734375 0 L 5.9375 0 L 5.9375 -0.359375 C 6.363281 -0.359375 6.6875 -0.398438 6.90625 -0.484375 C 7.125 -0.566406 7.285156 -0.734375 7.390625 -0.984375 C 7.492188 -1.234375 7.546875 -1.617188 7.546875 -2.140625 L 7.546875 -6.515625 C 7.546875 -6.984375 7.410156 -7.410156 7.140625 -7.796875 C 6.867188 -8.191406 6.460938 -8.390625 5.921875 -8.390625 C 5.566406 -8.390625 5.179688 -8.285156 4.765625 -8.078125 C 4.347656 -7.878906 3.9375 -7.570312 3.53125 -7.15625 L 3.53125 -2.140625 C 3.53125 -1.453125 3.640625 -0.984375 3.859375 -0.734375 C 4.078125 -0.484375 4.425781 -0.359375 4.90625 -0.359375 L 5.03125 -0.359375 L 5.03125 0 L 0.296875 0 L 0.296875 -0.359375 C 0.722656 -0.359375 1.039062 -0.398438 1.25 -0.484375 C 1.46875 -0.566406 1.625 -0.734375 1.71875 -0.984375 C 1.820312 -1.242188 1.875 -1.628906 1.875 -2.140625 L 1.875 -6.9375 C 1.875 -7.320312 1.789062 -7.644531 1.625 -7.90625 C 1.46875 -8.164062 1.21875 -8.296875 0.875 -8.296875 C 0.664062 -8.296875 0.472656 -8.257812 0.296875 -8.1875 L 0.15625 -8.53125 L 3.1875 -9.609375 Z M 3.53125 -9.609375 "/></g></g><g style="fill:#e0e0c5;fill-opacity:1;"><g transform="translate(154.718781, 260.525053)"><path style="stroke:none" d="M 3.6875 -7.453125 L 3.71875 -7.453125 C 4.09375 -8.109375 4.554688 -8.628906 5.109375 -9.015625 C 5.660156 -9.410156 6.25 -9.609375 6.875 -9.609375 C 7.550781 -9.609375 8.164062 -9.398438 8.71875 -8.984375 C 9.28125 -8.578125 9.722656 -8.015625 10.046875 -7.296875 C 10.378906 -6.585938 10.546875 -5.804688 10.546875 -4.953125 C 10.546875 -3.992188 10.335938 -3.113281 9.921875 -2.3125 C 9.503906 -1.507812 8.9375 -0.875 8.21875 -0.40625 C 7.507812 0.0507812 6.734375 0.28125 5.890625 0.28125 C 5.023438 0.28125 4.289062 -0.0078125 3.6875 -0.59375 L 3.6875 2.109375 C 3.6875 2.628906 3.738281 3.015625 3.84375 3.265625 C 3.945312 3.523438 4.117188 3.695312 4.359375 3.78125 C 4.597656 3.875 4.9375 3.921875 5.375 3.921875 L 5.375 4.28125 L 0.34375 4.28125 L 0.34375 3.921875 C 0.789062 3.921875 1.128906 3.875 1.359375 3.78125 C 1.597656 3.6875 1.765625 3.507812 1.859375 3.25 C 1.960938 3 2.015625 2.625 2.015625 2.125 L 2.015625 -7.0625 C 2.015625 -7.40625 1.941406 -7.6875 1.796875 -7.90625 C 1.648438 -8.132812 1.421875 -8.25 1.109375 -8.25 C 0.953125 -8.25 0.75 -8.207031 0.5 -8.125 L 0.34375 -8.484375 L 3.34375 -9.609375 L 3.6875 -9.609375 Z M 3.6875 -6.828125 L 3.6875 -2.5625 C 3.6875 -1.957031 3.894531 -1.4375 4.3125 -1 C 4.726562 -0.5625 5.28125 -0.34375 5.96875 -0.34375 C 6.84375 -0.34375 7.535156 -0.695312 8.046875 -1.40625 C 8.566406 -2.113281 8.828125 -3.0625 8.828125 -4.25 C 8.828125 -5.394531 8.566406 -6.332031 8.046875 -7.0625 C 7.535156 -7.800781 6.863281 -8.171875 6.03125 -8.171875 C 5.1875 -8.171875 4.40625 -7.722656 3.6875 -6.828125 Z M 3.6875 -6.828125 "/></g></g><g style="fill:#e0e0c5;fill-opacity:1;"><g transform="translate(165.615543, 260.525053)"><path style="stroke:none" d="M 3.65625 -14.5 L 3.65625 -2.125 C 3.65625 -1.445312 3.753906 -0.984375 3.953125 -0.734375 C 4.148438 -0.484375 4.503906 -0.359375 5.015625 -0.359375 L 5.015625 0 L 0.46875 0 L 0.46875 -0.359375 C 0.84375 -0.359375 1.132812 -0.398438 1.34375 -0.484375 C 1.5625 -0.566406 1.722656 -0.734375 1.828125 -0.984375 C 1.941406 -1.242188 2 -1.625 2 -2.125 L 2 -11.6875 C 2 -12.59375 1.679688 -13.046875 1.046875 -13.046875 C 0.867188 -13.046875 0.71875 -13.007812 0.59375 -12.9375 L 0.46875 -13.28125 L 3.296875 -14.5 Z M 3.65625 -14.5 "/></g></g><g style="fill:#e0e0c5;fill-opacity:1;"><g transform="translate(170.831433, 260.525053)"><path style="stroke:none" d="M 4.75 -9.609375 C 5.800781 -9.609375 6.65625 -9.253906 7.3125 -8.546875 C 7.96875 -7.847656 8.296875 -6.941406 8.296875 -5.828125 L 1.9375 -5.828125 L 1.9375 -5.5625 C 1.9375 -4.84375 2.078125 -4.15625 2.359375 -3.5 C 2.648438 -2.851562 3.050781 -2.328125 3.5625 -1.921875 C 4.070312 -1.515625 4.648438 -1.3125 5.296875 -1.3125 C 6.578125 -1.3125 7.472656 -2.023438 7.984375 -3.453125 L 8.296875 -3.296875 C 8.078125 -2.191406 7.628906 -1.316406 6.953125 -0.671875 C 6.273438 -0.0351562 5.46875 0.28125 4.53125 0.28125 C 3.832031 0.28125 3.179688 0.0976562 2.578125 -0.265625 C 1.972656 -0.628906 1.484375 -1.175781 1.109375 -1.90625 C 0.742188 -2.632812 0.5625 -3.515625 0.5625 -4.546875 C 0.5625 -5.546875 0.738281 -6.425781 1.09375 -7.1875 C 1.445312 -7.957031 1.9375 -8.550781 2.5625 -8.96875 C 3.195312 -9.394531 3.925781 -9.609375 4.75 -9.609375 Z M 4.1875 -8.890625 C 3.625 -8.890625 3.132812 -8.664062 2.71875 -8.21875 C 2.3125 -7.78125 2.066406 -7.191406 1.984375 -6.453125 L 6.203125 -6.453125 C 6.179688 -7.179688 6 -7.769531 5.65625 -8.21875 C 5.3125 -8.664062 4.820312 -8.890625 4.1875 -8.890625 Z M 4.1875 -8.890625 "/></g></g><g style="fill:#e0e0c5;fill-opacity:1;"><g transform="translate(179.423496, 260.525053)"><path style="stroke:none" d=""/></g></g><g style="fill:#e0e0c5;fill-opacity:1;"><g transform="translate(184.214839, 260.525053)"><path style="stroke:none" d="M 7.359375 -14.1875 C 8.128906 -14.1875 8.773438 -13.960938 9.296875 -13.515625 C 9.828125 -13.066406 10.09375 -12.503906 10.09375 -11.828125 C 10.09375 -10.347656 9.066406 -9.09375 7.015625 -8.0625 C 7.304688 -7.488281 7.707031 -6.78125 8.21875 -5.9375 C 8.726562 -5.09375 9.195312 -4.375 9.625 -3.78125 C 10.125 -4.425781 10.507812 -5.070312 10.78125 -5.71875 C 11.0625 -6.363281 11.203125 -6.957031 11.203125 -7.5 C 11.203125 -7.832031 11.117188 -8.097656 10.953125 -8.296875 C 10.796875 -8.503906 10.566406 -8.625 10.265625 -8.65625 L 10.265625 -9.015625 L 14.515625 -9.015625 L 14.515625 -8.65625 C 14.066406 -8.625 13.691406 -8.503906 13.390625 -8.296875 C 13.085938 -8.085938 12.835938 -7.820312 12.640625 -7.5 C 12.453125 -7.1875 12.207031 -6.734375 11.90625 -6.140625 C 11.625 -5.546875 11.351562 -5.019531 11.09375 -4.5625 C 10.832031 -4.101562 10.503906 -3.65625 10.109375 -3.21875 C 10.691406 -2.550781 11.226562 -2.066406 11.71875 -1.765625 C 12.207031 -1.460938 12.726562 -1.3125 13.28125 -1.3125 C 13.6875 -1.3125 14.035156 -1.445312 14.328125 -1.71875 C 14.628906 -1.988281 14.828125 -2.332031 14.921875 -2.75 L 15.25 -2.53125 C 15.113281 -1.707031 14.765625 -1.03125 14.203125 -0.5 C 13.640625 0.03125 12.984375 0.296875 12.234375 0.296875 C 11.640625 0.296875 11.078125 0.148438 10.546875 -0.140625 C 10.015625 -0.441406 9.394531 -0.953125 8.6875 -1.671875 C 8 -1.003906 7.265625 -0.507812 6.484375 -0.1875 C 5.703125 0.132812 4.914062 0.296875 4.125 0.296875 C 3.476562 0.296875 2.890625 0.160156 2.359375 -0.109375 C 1.835938 -0.390625 1.425781 -0.769531 1.125 -1.25 C 0.820312 -1.738281 0.671875 -2.28125 0.671875 -2.875 C 0.671875 -3.832031 1 -4.695312 1.65625 -5.46875 C 2.320312 -6.238281 3.367188 -7.023438 4.796875 -7.828125 C 4.535156 -8.347656 4.34375 -8.84375 4.21875 -9.3125 C 4.09375 -9.789062 4.03125 -10.304688 4.03125 -10.859375 C 4.03125 -11.492188 4.175781 -12.0625 4.46875 -12.5625 C 4.757812 -13.070312 5.160156 -13.46875 5.671875 -13.75 C 6.191406 -14.039062 6.753906 -14.1875 7.359375 -14.1875 Z M 5.90625 -11.5625 C 5.90625 -11.09375 5.96875 -10.632812 6.09375 -10.1875 C 6.21875 -9.738281 6.410156 -9.25 6.671875 -8.71875 C 7.453125 -9.101562 8.015625 -9.53125 8.359375 -10 C 8.710938 -10.476562 8.890625 -11.039062 8.890625 -11.6875 C 8.890625 -12.207031 8.75 -12.632812 8.46875 -12.96875 C 8.195312 -13.3125 7.828125 -13.484375 7.359375 -13.484375 C 6.898438 -13.484375 6.539062 -13.3125 6.28125 -12.96875 C 6.03125 -12.625 5.90625 -12.15625 5.90625 -11.5625 Z M 2.765625 -3.71875 C 2.765625 -3.238281 2.882812 -2.785156 3.125 -2.359375 C 3.363281 -1.929688 3.675781 -1.59375 4.0625 -1.34375 C 4.457031 -1.09375 4.875 -0.96875 5.3125 -0.96875 C 5.789062 -0.96875 6.285156 -1.082031 6.796875 -1.3125 C 7.316406 -1.539062 7.773438 -1.851562 8.171875 -2.25 C 7.710938 -2.757812 7.207031 -3.441406 6.65625 -4.296875 C 6.113281 -5.160156 5.59375 -6.09375 5.09375 -7.09375 C 3.539062 -6.25 2.765625 -5.125 2.765625 -3.71875 Z M 2.765625 -3.71875 "/></g></g><g style="fill:#e0e0c5;fill-opacity:1;"><g transform="translate(199.539036, 260.525053)"><path style="stroke:none" d=""/></g></g><g style="fill:#e0e0c5;fill-opacity:1;"><g transform="translate(204.330379, 260.525053)"><path style="stroke:none" d="M 11.90625 -10.8125 L 11.5625 -10.8125 C 11.425781 -11.582031 11.175781 -12.148438 10.8125 -12.515625 C 10.445312 -12.890625 9.941406 -13.078125 9.296875 -13.078125 L 4.90625 -13.078125 L 4.90625 -7.71875 L 8.515625 -7.71875 C 9.160156 -7.71875 9.617188 -7.878906 9.890625 -8.203125 C 10.160156 -8.523438 10.300781 -9.039062 10.3125 -9.75 L 10.671875 -9.75 L 10.671875 -4.859375 L 10.3125 -4.859375 C 10.3125 -5.554688 10.175781 -6.070312 9.90625 -6.40625 C 9.632812 -6.75 9.15625 -6.921875 8.46875 -6.921875 L 4.90625 -6.921875 L 4.90625 -1.84375 C 4.90625 -1.15625 5.175781 -0.8125 5.71875 -0.8125 L 9.28125 -0.8125 C 10.019531 -0.8125 10.671875 -1.035156 11.234375 -1.484375 C 11.804688 -1.929688 12.265625 -2.585938 12.609375 -3.453125 L 13.046875 -3.453125 L 11.90625 0 L 0.734375 0 L 0.734375 -0.359375 C 1.429688 -0.359375 1.9375 -0.476562 2.25 -0.71875 C 2.570312 -0.957031 2.734375 -1.398438 2.734375 -2.046875 L 2.734375 -11.984375 C 2.734375 -12.523438 2.570312 -12.914062 2.25 -13.15625 C 1.9375 -13.40625 1.429688 -13.53125 0.734375 -13.53125 L 0.734375 -13.890625 L 11.75 -13.890625 Z M 11.90625 -10.8125 "/></g></g><g style="fill:#e0e0c5;fill-opacity:1;"><g transform="translate(217.552053, 260.525053)"><path style="stroke:none" d="M 4.828125 -9.609375 C 6.847656 -9.609375 7.859375 -8.796875 7.859375 -7.171875 L 7.859375 -1.8125 C 7.859375 -1.457031 7.910156 -1.222656 8.015625 -1.109375 C 8.128906 -0.992188 8.273438 -0.9375 8.453125 -0.9375 C 8.648438 -0.9375 8.835938 -0.992188 9.015625 -1.109375 C 9.191406 -1.222656 9.445312 -1.441406 9.78125 -1.765625 L 9.78125 -1.25 C 9.269531 -0.675781 8.847656 -0.273438 8.515625 -0.046875 C 8.191406 0.171875 7.851562 0.28125 7.5 0.28125 C 7.113281 0.28125 6.800781 0.144531 6.5625 -0.125 C 6.320312 -0.40625 6.203125 -0.816406 6.203125 -1.359375 C 5.609375 -0.785156 5.054688 -0.367188 4.546875 -0.109375 C 4.046875 0.148438 3.5 0.28125 2.90625 0.28125 C 2.3125 0.28125 1.8125 0.0625 1.40625 -0.375 C 1.007812 -0.820312 0.8125 -1.363281 0.8125 -2 C 0.8125 -3.082031 1.382812 -3.921875 2.53125 -4.515625 C 3.625 -5.085938 4.847656 -5.617188 6.203125 -6.109375 L 6.203125 -6.671875 C 6.203125 -7.210938 6.164062 -7.644531 6.09375 -7.96875 C 6.019531 -8.289062 5.851562 -8.546875 5.59375 -8.734375 C 5.332031 -8.929688 4.929688 -9.03125 4.390625 -9.03125 C 3.859375 -9.03125 3.460938 -8.898438 3.203125 -8.640625 C 2.953125 -8.390625 2.828125 -8.078125 2.828125 -7.703125 L 2.84375 -7.171875 C 2.84375 -6.941406 2.769531 -6.753906 2.625 -6.609375 C 2.476562 -6.460938 2.289062 -6.390625 2.0625 -6.390625 C 1.800781 -6.390625 1.585938 -6.460938 1.421875 -6.609375 C 1.265625 -6.753906 1.1875 -6.960938 1.1875 -7.234375 C 1.1875 -7.910156 1.503906 -8.472656 2.140625 -8.921875 C 2.773438 -9.378906 3.671875 -9.609375 4.828125 -9.609375 Z M 2.53125 -2.53125 C 2.53125 -2.070312 2.671875 -1.679688 2.953125 -1.359375 C 3.242188 -1.035156 3.609375 -0.875 4.046875 -0.875 C 4.734375 -0.875 5.453125 -1.207031 6.203125 -1.875 L 6.203125 -5.5625 C 5.265625 -5.164062 4.535156 -4.820312 4.015625 -4.53125 C 3.503906 -4.25 3.128906 -3.953125 2.890625 -3.640625 C 2.648438 -3.328125 2.53125 -2.957031 2.53125 -2.53125 Z M 2.53125 -2.53125 "/></g></g><g style="fill:#e0e0c5;fill-opacity:1;"><g transform="translate(227.397544, 260.525053)"><path style="stroke:none" d="M 3.796875 -9.609375 C 4.191406 -9.609375 4.59375 -9.539062 5 -9.40625 C 5.28125 -9.3125 5.507812 -9.265625 5.6875 -9.265625 C 5.800781 -9.265625 5.925781 -9.300781 6.0625 -9.375 L 6.421875 -9.375 L 6.421875 -6.53125 L 6.0625 -6.53125 C 5.957031 -7.269531 5.695312 -7.867188 5.28125 -8.328125 C 4.863281 -8.796875 4.359375 -9.03125 3.765625 -9.03125 C 3.285156 -9.03125 2.894531 -8.914062 2.59375 -8.6875 C 2.289062 -8.457031 2.140625 -8.148438 2.140625 -7.765625 C 2.140625 -7.453125 2.222656 -7.179688 2.390625 -6.953125 C 2.566406 -6.734375 2.804688 -6.53125 3.109375 -6.34375 C 3.410156 -6.15625 3.882812 -5.894531 4.53125 -5.5625 C 5.363281 -5.113281 6 -4.671875 6.4375 -4.234375 C 6.882812 -3.804688 7.109375 -3.226562 7.109375 -2.5 C 7.109375 -1.851562 6.941406 -1.320312 6.609375 -0.90625 C 6.285156 -0.488281 5.890625 -0.1875 5.421875 0 C 4.960938 0.1875 4.523438 0.28125 4.109375 0.28125 C 3.703125 0.28125 3.15625 0.1875 2.46875 0 C 2.15625 -0.09375 1.945312 -0.140625 1.84375 -0.140625 C 1.664062 -0.140625 1.539062 -0.09375 1.46875 0 L 1.046875 0 L 1.046875 -3.15625 L 1.390625 -3.15625 C 1.484375 -2.320312 1.785156 -1.644531 2.296875 -1.125 C 2.816406 -0.601562 3.425781 -0.34375 4.125 -0.34375 C 4.539062 -0.34375 4.90625 -0.476562 5.21875 -0.75 C 5.53125 -1.019531 5.6875 -1.359375 5.6875 -1.765625 C 5.6875 -2.234375 5.550781 -2.601562 5.28125 -2.875 C 5.007812 -3.144531 4.707031 -3.375 4.375 -3.5625 C 4.039062 -3.757812 3.820312 -3.882812 3.71875 -3.9375 C 3.664062 -3.976562 3.476562 -4.085938 3.15625 -4.265625 C 2.664062 -4.535156 2.273438 -4.773438 1.984375 -4.984375 C 1.703125 -5.191406 1.460938 -5.460938 1.265625 -5.796875 C 1.066406 -6.140625 0.96875 -6.5625 0.96875 -7.0625 C 0.96875 -7.8125 1.234375 -8.421875 1.765625 -8.890625 C 2.296875 -9.367188 2.972656 -9.609375 3.796875 -9.609375 Z M 3.796875 -9.609375 "/></g></g><g style="fill:#e0e0c5;fill-opacity:1;"><g transform="translate(234.918123, 260.525053)"><path style="stroke:none" d="M 4.515625 -9.015625 C 4.117188 -9.015625 3.835938 -8.960938 3.671875 -8.859375 C 3.503906 -8.765625 3.421875 -8.566406 3.421875 -8.265625 C 3.421875 -8.015625 3.460938 -7.789062 3.546875 -7.59375 C 3.640625 -7.40625 3.691406 -7.300781 3.703125 -7.28125 L 5.90625 -2.34375 L 7.90625 -7.75 C 8.007812 -8.070312 8.0625 -8.289062 8.0625 -8.40625 C 8.0625 -8.625 7.988281 -8.773438 7.84375 -8.859375 C 7.695312 -8.941406 7.453125 -8.992188 7.109375 -9.015625 L 7.109375 -9.375 L 9.8125 -9.375 L 9.8125 -9.015625 C 9.5625 -8.992188 9.347656 -8.882812 9.171875 -8.6875 C 9.003906 -8.488281 8.851562 -8.207031 8.71875 -7.84375 L 5.5625 0.640625 C 5.1875 1.628906 4.738281 2.484375 4.21875 3.203125 C 3.707031 3.921875 2.992188 4.28125 2.078125 4.28125 C 1.671875 4.28125 1.34375 4.175781 1.09375 3.96875 C 0.851562 3.757812 0.734375 3.492188 0.734375 3.171875 C 0.734375 2.898438 0.828125 2.675781 1.015625 2.5 C 1.210938 2.332031 1.46875 2.25 1.78125 2.25 C 1.96875 2.25 2.140625 2.28125 2.296875 2.34375 C 2.460938 2.414062 2.5625 2.457031 2.59375 2.46875 C 2.863281 2.570312 3.054688 2.625 3.171875 2.625 C 3.535156 2.625 3.863281 2.390625 4.15625 1.921875 C 4.445312 1.453125 4.773438 0.742188 5.140625 -0.203125 L 2.21875 -6.6875 C 1.9375 -7.3125 1.722656 -7.757812 1.578125 -8.03125 C 1.429688 -8.3125 1.257812 -8.539062 1.0625 -8.71875 C 0.863281 -8.894531 0.617188 -8.992188 0.328125 -9.015625 L 0.328125 -9.375 L 4.515625 -9.375 Z M 4.515625 -9.015625 "/></g></g></g></svg>